<mxfile host="app.diagrams.net" modified="2023-08-28T12:20:27.631Z" agent="Mozilla/5.0 (Windows NT 10.0; Win64; x64) AppleWebKit/537.36 (KHTML, like Gecko) Chrome/116.0.0.0 Safari/537.36" version="21.6.9" etag="dPu6YaLko-3u5l41xyHJ" type="github">
  <diagram name="第 1 页" id="zKl2ZN4JfV-xTzu11GPz">
    <mxGraphModel>
      <root>
        <mxCell id="0" />
        <mxCell id="1" parent="0" />
      </root>
    </mxGraphModel>
  </diagram>
</mxfile>
